<svg width="14" height="44" viewBox="0 0 14 44" fill="none" xmlns="http://www.w3.org/2000/svg">
<path d="M12.586 17.4538C12.064 17.774 11.6316 18.2217 11.3293 18.7549C11.027 19.2881 10.8647 19.8894 10.8575 20.5026C10.8595 21.1928 11.0636 21.8671 11.4445 22.4422C11.8253 23.0173 12.3661 23.4678 13 23.738C12.7501 24.5458 12.3802 25.3114 11.9028 26.009C11.2198 26.9941 10.5055 27.9792 9.41879 27.9792C8.33205 27.9792 8.05254 27.3467 6.80015 27.3467C5.57882 27.3467 5.14408 28 4.15044 28C3.1568 28 2.46341 27.0874 1.66639 25.9675C0.61359 24.3986 0.0349851 22.5587 0 20.6685C0 17.5575 2.01835 15.9088 4.00553 15.9088C5.0613 15.9088 5.9411 16.6035 6.60352 16.6035C7.23488 16.6035 8.2182 15.8672 9.41879 15.8672C10.0361 15.8513 10.6478 15.9876 11.2001 16.2643C11.7524 16.541 12.2284 16.9495 12.586 17.4538ZM8.84956 14.5503C9.3788 13.9265 9.67839 13.1397 9.69829 12.3213C9.69918 12.2134 9.68877 12.1057 9.66722 12C8.75812 12.089 7.91746 12.5231 7.31766 13.2133C6.78332 13.8122 6.47244 14.578 6.43787 15.3805C6.43827 15.4782 6.44868 15.5755 6.46893 15.6709C6.5406 15.6845 6.61336 15.6915 6.6863 15.6917C7.10528 15.6583 7.5131 15.5399 7.88498 15.3437C8.25686 15.1475 8.58504 14.8775 8.84956 14.5503Z" fill="black" fill-opacity="0.8"/>
</svg>
