<svg width="14" height="44" viewBox="0 0 14 44" fill="none" xmlns="http://www.w3.org/2000/svg">
<path d="M11.3533 16.0283H10.3328C10.2234 15.2173 9.82703 14.4723 9.21558 13.9284C8.60412 13.3845 7.81803 13.0776 6.99979 13.0635C6.18155 13.0776 5.39545 13.3845 4.784 13.9284C4.17254 14.4723 3.77619 15.2173 3.66679 16.0283H2.64679C2.08557 16.0286 1.54744 16.2517 1.15053 16.6485C0.753621 17.0452 0.530368 17.5833 0.529785 18.1445V25.86C0.530288 26.4211 0.75339 26.9591 1.15013 27.356C1.54687 27.7528 2.08484 27.976 2.64599 27.9767H11.353C11.9142 27.9762 12.4524 27.753 12.8492 27.3562C13.2461 26.9593 13.4693 26.4212 13.4698 25.86V18.1445C13.4692 17.5834 13.246 17.0454 12.8492 16.6486C12.4524 16.2519 11.9144 16.0288 11.3533 16.0283ZM6.99979 14.1631C7.5272 14.1745 8.0349 14.3656 8.43897 14.7048C8.84303 15.0439 9.11926 15.5108 9.22199 16.0283H4.77759C4.88031 15.5108 5.15654 15.0439 5.5606 14.7048C5.96467 14.3656 6.47237 14.1745 6.99979 14.1631ZM12.3698 25.86C12.3695 26.1296 12.2623 26.388 12.0717 26.5787C11.8812 26.7693 11.6228 26.8767 11.3532 26.8771H2.64629C2.37673 26.8766 2.11835 26.7693 1.9278 26.5786C1.73725 26.388 1.63008 26.1295 1.62979 25.86V18.1445C1.6301 17.875 1.73731 17.6166 1.92789 17.426C2.11847 17.2354 2.37686 17.1282 2.64639 17.1279H11.3534C11.6229 17.1282 11.8812 17.2355 12.0718 17.4261C12.2623 17.6166 12.3695 17.875 12.3698 18.1445V25.86Z" fill="black" fill-opacity="0.8"/>
</svg>
