<svg width="1250" height="668" viewBox="0 0 1250 668" fill="none" xmlns="http://www.w3.org/2000/svg">
<rect width="1250" height="668" fill="url(#paint0_radial_1811_264)"/>
<rect x="70" y="566" width="133" height="44" rx="22" fill="#F5F5F7"/>
<path d="M98.2585 584.727C98.1861 584.116 97.8923 583.641 97.3771 583.303C96.862 582.964 96.2301 582.795 95.4815 582.795C94.9342 582.795 94.4553 582.884 94.0447 583.061C93.6383 583.238 93.3203 583.482 93.0909 583.792C92.8655 584.101 92.7528 584.454 92.7528 584.848C92.7528 585.178 92.8313 585.462 92.9883 585.699C93.1493 585.933 93.3545 586.128 93.604 586.285C93.8536 586.438 94.1152 586.565 94.3888 586.665C94.6625 586.762 94.9141 586.84 95.1435 586.901L96.3991 587.239C96.7211 587.323 97.0793 587.44 97.4737 587.589C97.8722 587.738 98.2525 587.941 98.6147 588.199C98.9809 588.452 99.2828 588.778 99.5202 589.176C99.7577 589.575 99.8764 590.064 99.8764 590.643C99.8764 591.312 99.7013 591.915 99.3512 592.455C99.0051 592.994 98.498 593.422 97.8299 593.74C97.1658 594.058 96.3589 594.217 95.4091 594.217C94.5237 594.217 93.757 594.074 93.109 593.789C92.4651 593.503 91.958 593.105 91.5877 592.593C91.2215 592.082 91.0142 591.489 90.9659 590.812H92.5114C92.5516 591.279 92.7086 591.666 92.9822 591.972C93.2599 592.273 93.6101 592.499 94.0327 592.648C94.4593 592.793 94.9181 592.865 95.4091 592.865C95.9806 592.865 96.4937 592.772 96.9485 592.587C97.4033 592.398 97.7635 592.137 98.0291 591.803C98.2947 591.464 98.4276 591.07 98.4276 590.619C98.4276 590.209 98.3129 589.875 98.0835 589.617C97.854 589.36 97.5522 589.15 97.1779 588.989C96.8036 588.828 96.3991 588.687 95.9645 588.567L94.4432 588.132C93.4773 587.854 92.7126 587.458 92.1491 586.943C91.5857 586.428 91.304 585.754 91.304 584.92C91.304 584.228 91.4911 583.625 91.8654 583.109C92.2437 582.59 92.7508 582.188 93.3867 581.902C94.0266 581.612 94.741 581.467 95.5298 581.467C96.3267 581.467 97.035 581.61 97.6548 581.896C98.2746 582.178 98.7656 582.564 99.1278 583.055C99.4941 583.546 99.6873 584.103 99.7074 584.727H98.2585ZM105.803 584.727V585.935H100.998V584.727H105.803ZM102.399 582.506H103.823V591.344C103.823 591.746 103.882 592.048 103.998 592.249C104.119 592.446 104.272 592.579 104.457 592.648C104.646 592.712 104.846 592.744 105.055 592.744C105.212 592.744 105.341 592.736 105.441 592.72C105.542 592.7 105.622 592.684 105.683 592.672L105.973 593.952C105.876 593.988 105.741 594.024 105.568 594.06C105.395 594.101 105.176 594.121 104.91 594.121C104.508 594.121 104.113 594.034 103.727 593.861C103.344 593.688 103.026 593.424 102.773 593.07C102.523 592.716 102.399 592.269 102.399 591.73V582.506ZM107.573 594V584.727H108.949V586.128H109.046C109.215 585.669 109.52 585.297 109.963 585.011C110.406 584.725 110.905 584.582 111.46 584.582C111.565 584.582 111.696 584.584 111.853 584.588C112.01 584.592 112.128 584.598 112.209 584.607V586.055C112.161 586.043 112.05 586.025 111.877 586.001C111.708 585.973 111.529 585.959 111.34 585.959C110.889 585.959 110.486 586.053 110.132 586.243C109.782 586.428 109.504 586.685 109.299 587.015C109.098 587.341 108.997 587.714 108.997 588.132V594H107.573ZM117.129 594.193C116.236 594.193 115.465 593.996 114.817 593.602C114.173 593.203 113.676 592.648 113.326 591.935C112.98 591.219 112.807 590.386 112.807 589.436C112.807 588.486 112.98 587.649 113.326 586.925C113.676 586.196 114.163 585.629 114.787 585.222C115.415 584.812 116.147 584.607 116.984 584.607C117.467 584.607 117.944 584.687 118.415 584.848C118.886 585.009 119.315 585.271 119.701 585.633C120.087 585.991 120.395 586.466 120.625 587.058C120.854 587.649 120.969 588.378 120.969 589.243V589.847H113.821V588.615H119.52C119.52 588.092 119.415 587.625 119.206 587.214C119.001 586.804 118.707 586.48 118.325 586.243C117.946 586.005 117.5 585.886 116.984 585.886C116.417 585.886 115.926 586.027 115.511 586.309C115.101 586.587 114.785 586.949 114.564 587.396C114.342 587.842 114.232 588.321 114.232 588.832V589.653C114.232 590.354 114.352 590.947 114.594 591.434C114.839 591.917 115.179 592.286 115.614 592.539C116.049 592.789 116.554 592.913 117.129 592.913C117.504 592.913 117.842 592.861 118.144 592.756C118.449 592.648 118.713 592.487 118.934 592.273C119.156 592.056 119.327 591.786 119.448 591.464L120.824 591.851C120.679 592.318 120.436 592.728 120.093 593.082C119.751 593.433 119.329 593.706 118.826 593.903C118.323 594.097 117.757 594.193 117.129 594.193ZM125.491 594.217C124.903 594.217 124.37 594.107 123.891 593.885C123.412 593.66 123.032 593.336 122.75 592.913C122.468 592.487 122.327 591.972 122.327 591.368C122.327 590.837 122.432 590.406 122.641 590.076C122.851 589.742 123.13 589.48 123.48 589.291C123.831 589.102 124.217 588.961 124.64 588.869C125.066 588.772 125.495 588.696 125.925 588.639C126.489 588.567 126.946 588.512 127.296 588.476C127.65 588.436 127.908 588.37 128.069 588.277C128.234 588.184 128.316 588.023 128.316 587.794V587.746C128.316 587.15 128.153 586.687 127.827 586.357C127.505 586.027 127.016 585.862 126.36 585.862C125.68 585.862 125.147 586.011 124.76 586.309C124.374 586.607 124.102 586.925 123.945 587.263L122.593 586.78C122.835 586.216 123.156 585.778 123.559 585.464C123.965 585.146 124.408 584.924 124.887 584.8C125.37 584.671 125.845 584.607 126.312 584.607C126.61 584.607 126.952 584.643 127.338 584.715C127.728 584.784 128.105 584.926 128.467 585.144C128.833 585.361 129.137 585.689 129.379 586.128C129.62 586.567 129.741 587.154 129.741 587.891V594H128.316V592.744H128.244C128.147 592.946 127.986 593.161 127.761 593.39C127.535 593.62 127.235 593.815 126.861 593.976C126.487 594.137 126.03 594.217 125.491 594.217ZM125.708 592.938C126.272 592.938 126.746 592.827 127.133 592.605C127.523 592.384 127.817 592.098 128.014 591.748C128.215 591.398 128.316 591.03 128.316 590.643V589.339C128.256 589.412 128.123 589.478 127.918 589.539C127.716 589.595 127.483 589.645 127.217 589.69C126.956 589.73 126.7 589.766 126.451 589.798C126.205 589.826 126.006 589.851 125.853 589.871C125.483 589.919 125.137 589.998 124.815 590.106C124.497 590.211 124.239 590.37 124.042 590.583C123.849 590.792 123.752 591.078 123.752 591.44C123.752 591.935 123.935 592.31 124.301 592.563C124.672 592.813 125.141 592.938 125.708 592.938ZM131.967 594V584.727H133.344V586.176H133.464C133.658 585.681 133.969 585.297 134.4 585.023C134.831 584.745 135.348 584.607 135.952 584.607C136.563 584.607 137.072 584.745 137.479 585.023C137.889 585.297 138.209 585.681 138.439 586.176H138.535C138.773 585.697 139.129 585.317 139.604 585.035C140.079 584.749 140.648 584.607 141.312 584.607C142.141 584.607 142.82 584.866 143.347 585.385C143.874 585.9 144.138 586.703 144.138 587.794V594H142.713V587.794C142.713 587.11 142.526 586.621 142.151 586.327C141.777 586.033 141.336 585.886 140.829 585.886C140.177 585.886 139.672 586.084 139.314 586.478C138.956 586.868 138.777 587.363 138.777 587.963V594H137.328V587.649C137.328 587.122 137.157 586.697 136.815 586.375C136.473 586.049 136.032 585.886 135.493 585.886C135.122 585.886 134.776 585.985 134.454 586.182C134.136 586.379 133.879 586.653 133.682 587.003C133.488 587.349 133.392 587.75 133.392 588.205V594H131.967ZM152.201 588.422V594H150.776V584.727H152.152V586.176H152.273C152.49 585.705 152.82 585.327 153.263 585.041C153.706 584.751 154.277 584.607 154.978 584.607C155.605 584.607 156.155 584.735 156.626 584.993C157.096 585.246 157.463 585.633 157.724 586.152C157.986 586.667 158.117 587.319 158.117 588.108V594H156.692V588.205C156.692 587.476 156.503 586.909 156.125 586.502C155.746 586.092 155.227 585.886 154.567 585.886C154.112 585.886 153.706 585.985 153.348 586.182C152.993 586.379 152.714 586.667 152.508 587.045C152.303 587.424 152.201 587.883 152.201 588.422ZM164.113 594.193C163.276 594.193 162.542 593.994 161.91 593.596C161.282 593.197 160.791 592.64 160.437 591.923C160.087 591.207 159.912 590.37 159.912 589.412C159.912 588.446 160.087 587.603 160.437 586.882C160.791 586.162 161.282 585.603 161.91 585.204C162.542 584.806 163.276 584.607 164.113 584.607C164.95 584.607 165.683 584.806 166.311 585.204C166.943 585.603 167.434 586.162 167.784 586.882C168.138 587.603 168.315 588.446 168.315 589.412C168.315 590.37 168.138 591.207 167.784 591.923C167.434 592.64 166.943 593.197 166.311 593.596C165.683 593.994 164.95 594.193 164.113 594.193ZM164.113 592.913C164.749 592.913 165.272 592.75 165.683 592.424C166.093 592.098 166.397 591.67 166.594 591.138C166.792 590.607 166.89 590.032 166.89 589.412C166.89 588.792 166.792 588.215 166.594 587.679C166.397 587.144 166.093 586.711 165.683 586.381C165.272 586.051 164.749 585.886 164.113 585.886C163.477 585.886 162.954 586.051 162.544 586.381C162.133 586.711 161.829 587.144 161.632 587.679C161.435 588.215 161.336 588.792 161.336 589.412C161.336 590.032 161.435 590.607 161.632 591.138C161.829 591.67 162.133 592.098 162.544 592.424C162.954 592.75 163.477 592.913 164.113 592.913ZM171.901 594L169.076 584.727H170.573L172.577 591.827H172.674L174.654 584.727H176.175L178.131 591.803H178.228L180.232 584.727H181.729L178.904 594H177.503L175.475 586.876H175.33L173.302 594H171.901Z" fill="black"/>
<g opacity="0.999" filter="url(#filter0_d_1811_264)">
<path d="M234.983 587.965H232.339C232.291 587.623 232.192 587.319 232.043 587.053C231.894 586.784 231.703 586.554 231.47 586.365C231.236 586.176 230.967 586.031 230.661 585.93C230.359 585.83 230.031 585.779 229.677 585.779C229.037 585.779 228.48 585.938 228.005 586.256C227.53 586.57 227.161 587.029 226.9 587.633C226.638 588.232 226.507 588.961 226.507 589.818C226.507 590.7 226.638 591.44 226.9 592.04C227.165 592.639 227.536 593.092 228.011 593.398C228.486 593.704 229.035 593.857 229.659 593.857C230.009 593.857 230.333 593.811 230.631 593.718C230.933 593.625 231.2 593.491 231.434 593.314C231.667 593.132 231.86 592.913 232.013 592.656C232.17 592.398 232.279 592.104 232.339 591.774L234.983 591.786C234.915 592.354 234.744 592.901 234.47 593.428C234.201 593.951 233.836 594.42 233.377 594.835C232.923 595.245 232.379 595.571 231.748 595.813C231.12 596.05 230.409 596.169 229.616 596.169C228.514 596.169 227.528 595.92 226.658 595.42C225.793 594.921 225.109 594.199 224.606 593.253C224.107 592.307 223.857 591.162 223.857 589.818C223.857 588.47 224.111 587.323 224.618 586.377C225.125 585.431 225.813 584.711 226.683 584.216C227.552 583.717 228.53 583.467 229.616 583.467C230.333 583.467 230.997 583.568 231.609 583.769C232.224 583.97 232.77 584.264 233.245 584.651C233.72 585.033 234.106 585.502 234.404 586.057C234.706 586.613 234.899 587.248 234.983 587.965ZM240.999 596.181C240.061 596.181 239.25 595.982 238.566 595.583C237.886 595.181 237.361 594.622 236.991 593.905C236.62 593.185 236.435 592.35 236.435 591.4C236.435 590.442 236.62 589.605 236.991 588.888C237.361 588.168 237.886 587.609 238.566 587.21C239.25 586.808 240.061 586.607 240.999 586.607C241.937 586.607 242.746 586.808 243.426 587.21C244.11 587.609 244.637 588.168 245.008 588.888C245.378 589.605 245.563 590.442 245.563 591.4C245.563 592.35 245.378 593.185 245.008 593.905C244.637 594.622 244.11 595.181 243.426 595.583C242.746 595.982 241.937 596.181 240.999 596.181ZM241.011 594.189C241.438 594.189 241.794 594.068 242.08 593.827C242.365 593.581 242.581 593.247 242.726 592.825C242.875 592.402 242.949 591.921 242.949 591.382C242.949 590.842 242.875 590.362 242.726 589.939C242.581 589.516 242.365 589.182 242.08 588.937C241.794 588.691 241.438 588.569 241.011 588.569C240.581 588.569 240.218 588.691 239.925 588.937C239.635 589.182 239.415 589.516 239.267 589.939C239.122 590.362 239.049 590.842 239.049 591.382C239.049 591.921 239.122 592.402 239.267 592.825C239.415 593.247 239.635 593.581 239.925 593.827C240.218 594.068 240.581 594.189 241.011 594.189ZM247.235 596V586.727H249.686V588.363H249.795C249.988 587.82 250.31 587.391 250.761 587.077C251.212 586.763 251.751 586.607 252.379 586.607C253.015 586.607 253.556 586.766 254.003 587.083C254.449 587.397 254.747 587.824 254.896 588.363H254.993C255.182 587.832 255.524 587.407 256.019 587.089C256.518 586.768 257.108 586.607 257.788 586.607C258.653 586.607 259.355 586.882 259.895 587.434C260.438 587.981 260.71 588.758 260.71 589.764V596H258.144V590.271C258.144 589.756 258.007 589.369 257.733 589.112C257.46 588.854 257.118 588.725 256.707 588.725C256.24 588.725 255.876 588.874 255.615 589.172C255.353 589.466 255.222 589.854 255.222 590.337V596H252.729V590.217C252.729 589.762 252.598 589.4 252.336 589.13C252.079 588.86 251.739 588.725 251.316 588.725C251.03 588.725 250.773 588.798 250.544 588.943C250.318 589.084 250.139 589.283 250.006 589.54C249.873 589.794 249.807 590.092 249.807 590.434V596H247.235ZM266.967 596.181C266.013 596.181 265.192 595.988 264.504 595.602C263.82 595.211 263.292 594.66 262.922 593.947C262.552 593.231 262.367 592.384 262.367 591.406C262.367 590.452 262.552 589.615 262.922 588.895C263.292 588.174 263.814 587.613 264.486 587.21C265.162 586.808 265.955 586.607 266.864 586.607C267.476 586.607 268.046 586.705 268.573 586.902C269.104 587.096 269.567 587.387 269.961 587.778C270.36 588.168 270.67 588.659 270.891 589.251C271.112 589.838 271.223 590.527 271.223 591.315V592.022H263.393V590.428H268.802C268.802 590.058 268.722 589.73 268.561 589.444C268.4 589.158 268.176 588.935 267.891 588.774C267.609 588.609 267.281 588.526 266.907 588.526C266.516 588.526 266.17 588.617 265.868 588.798C265.57 588.975 265.337 589.214 265.168 589.516C264.999 589.814 264.912 590.146 264.908 590.512V592.028C264.908 592.487 264.993 592.883 265.162 593.217C265.335 593.551 265.578 593.809 265.892 593.99C266.206 594.171 266.579 594.261 267.009 594.261C267.295 594.261 267.557 594.221 267.794 594.141C268.031 594.06 268.235 593.939 268.404 593.778C268.573 593.617 268.702 593.42 268.79 593.187L271.169 593.344C271.048 593.915 270.8 594.414 270.426 594.841C270.056 595.263 269.577 595.594 268.989 595.831C268.406 596.064 267.732 596.181 266.967 596.181ZM276.318 596.151C275.614 596.151 274.976 595.97 274.404 595.608C273.837 595.241 273.386 594.704 273.052 593.996C272.722 593.283 272.557 592.41 272.557 591.376C272.557 590.313 272.728 589.43 273.07 588.725C273.412 588.017 273.867 587.488 274.435 587.138C275.006 586.784 275.632 586.607 276.312 586.607C276.831 586.607 277.264 586.695 277.61 586.872C277.96 587.045 278.242 587.263 278.455 587.524C278.673 587.782 278.838 588.035 278.95 588.285H279.029V583.636H281.594V596H279.059V594.515H278.95C278.83 594.772 278.658 595.028 278.437 595.282C278.22 595.531 277.936 595.738 277.586 595.903C277.24 596.068 276.817 596.151 276.318 596.151ZM277.133 594.104C277.548 594.104 277.898 593.992 278.184 593.766C278.473 593.537 278.695 593.217 278.848 592.806C279.005 592.396 279.083 591.915 279.083 591.364C279.083 590.812 279.007 590.333 278.854 589.927C278.701 589.52 278.479 589.206 278.19 588.985C277.9 588.764 277.548 588.653 277.133 588.653C276.711 588.653 276.354 588.768 276.065 588.997C275.775 589.227 275.556 589.545 275.407 589.951C275.258 590.357 275.183 590.828 275.183 591.364C275.183 591.903 275.258 592.38 275.407 592.794C275.56 593.205 275.779 593.527 276.065 593.76C276.354 593.99 276.711 594.104 277.133 594.104ZM285.297 599.477C284.971 599.477 284.665 599.451 284.379 599.399C284.097 599.35 283.864 599.288 283.679 599.212L284.258 597.292C284.56 597.384 284.832 597.435 285.073 597.443C285.319 597.451 285.53 597.395 285.707 597.274C285.888 597.153 286.035 596.948 286.148 596.658L286.299 596.266L282.972 586.727H285.677L287.597 593.537H287.693L289.631 586.727H292.354L288.75 597.002C288.577 597.501 288.341 597.936 288.043 598.306C287.75 598.68 287.377 598.968 286.927 599.169C286.476 599.375 285.932 599.477 285.297 599.477ZM299.954 592.034C299.556 592.034 299.214 591.893 298.928 591.611C298.646 591.325 298.505 590.983 298.505 590.585C298.505 590.19 298.646 589.852 298.928 589.571C299.214 589.289 299.556 589.148 299.954 589.148C300.341 589.148 300.679 589.289 300.968 589.571C301.258 589.852 301.403 590.19 301.403 590.585C301.403 590.85 301.335 591.094 301.198 591.315C301.065 591.533 300.89 591.708 300.673 591.841C300.455 591.969 300.216 592.034 299.954 592.034ZM311.012 596L307.632 583.636H309.153L311.737 593.706H311.858L314.49 583.636H316.18L318.812 593.706H318.933L321.517 583.636H323.038L319.657 596H318.112L315.383 586.148H315.287L312.558 596H311.012ZM324.71 596V586.727H326.135V596H324.71ZM325.435 585.182C325.157 585.182 324.917 585.087 324.716 584.898C324.519 584.709 324.42 584.482 324.42 584.216C324.42 583.95 324.519 583.723 324.716 583.534C324.917 583.345 325.157 583.25 325.435 583.25C325.712 583.25 325.95 583.345 326.147 583.534C326.348 583.723 326.449 583.95 326.449 584.216C326.449 584.482 326.348 584.709 326.147 584.898C325.95 585.087 325.712 585.182 325.435 585.182ZM330.169 583.636V596H328.744V583.636H330.169ZM334.203 583.636V596H332.779V583.636H334.203ZM345.627 586.727V587.935H340.821V586.727H345.627ZM342.222 584.506H343.647V593.344C343.647 593.746 343.705 594.048 343.822 594.249C343.942 594.446 344.095 594.579 344.28 594.648C344.47 594.712 344.669 594.744 344.878 594.744C345.035 594.744 345.164 594.736 345.264 594.72C345.365 594.7 345.446 594.684 345.506 594.672L345.796 595.952C345.699 595.988 345.564 596.024 345.391 596.06C345.218 596.101 344.999 596.121 344.733 596.121C344.331 596.121 343.936 596.034 343.55 595.861C343.168 595.688 342.85 595.424 342.596 595.07C342.347 594.716 342.222 594.269 342.222 593.73V584.506ZM349.394 590.422V596H347.969V583.636H349.394V588.176H349.514C349.732 587.697 350.058 587.317 350.492 587.035C350.931 586.749 351.515 586.607 352.243 586.607C352.875 586.607 353.428 586.733 353.903 586.987C354.378 587.236 354.746 587.621 355.008 588.14C355.274 588.655 355.407 589.311 355.407 590.108V596H353.982V590.205C353.982 589.468 353.791 588.899 353.408 588.496C353.03 588.09 352.505 587.886 351.833 587.886C351.366 587.886 350.947 587.985 350.577 588.182C350.211 588.379 349.921 588.667 349.708 589.045C349.498 589.424 349.394 589.883 349.394 590.422ZM361.901 596.193C361.007 596.193 360.237 595.996 359.589 595.602C358.945 595.203 358.448 594.648 358.097 593.935C357.751 593.219 357.578 592.386 357.578 591.436C357.578 590.486 357.751 589.649 358.097 588.925C358.448 588.196 358.935 587.629 359.558 587.222C360.186 586.812 360.919 586.607 361.756 586.607C362.239 586.607 362.716 586.687 363.187 586.848C363.657 587.009 364.086 587.271 364.472 587.633C364.859 587.991 365.167 588.466 365.396 589.058C365.626 589.649 365.74 590.378 365.74 591.243V591.847H358.593V590.615H364.291C364.291 590.092 364.187 589.625 363.977 589.214C363.772 588.804 363.478 588.48 363.096 588.243C362.718 588.005 362.271 587.886 361.756 587.886C361.188 587.886 360.697 588.027 360.283 588.309C359.872 588.587 359.556 588.949 359.335 589.396C359.114 589.842 359.003 590.321 359.003 590.832V591.653C359.003 592.354 359.124 592.947 359.365 593.434C359.611 593.917 359.951 594.286 360.385 594.539C360.82 594.789 361.325 594.913 361.901 594.913C362.275 594.913 362.613 594.861 362.915 594.756C363.221 594.648 363.484 594.487 363.706 594.273C363.927 594.056 364.098 593.786 364.219 593.464L365.595 593.851C365.45 594.318 365.207 594.728 364.865 595.082C364.523 595.433 364.1 595.706 363.597 595.903C363.094 596.097 362.529 596.193 361.901 596.193ZM368.543 599.477C368.301 599.477 368.086 599.457 367.897 599.417C367.708 599.381 367.577 599.344 367.505 599.308L367.867 598.053C368.213 598.141 368.519 598.173 368.784 598.149C369.05 598.125 369.285 598.006 369.491 597.793C369.7 597.584 369.891 597.244 370.064 596.773L370.33 596.048L366.901 586.727H368.446L371.006 594.116H371.103L373.662 586.727H375.208L371.272 597.352C371.094 597.831 370.875 598.228 370.614 598.542C370.352 598.859 370.048 599.095 369.702 599.248C369.36 599.401 368.974 599.477 368.543 599.477ZM381.869 596V586.727H383.246V588.176H383.367C383.56 587.681 383.872 587.297 384.302 587.023C384.733 586.745 385.25 586.607 385.854 586.607C386.466 586.607 386.975 586.745 387.381 587.023C387.792 587.297 388.112 587.681 388.341 588.176H388.438C388.675 587.697 389.031 587.317 389.506 587.035C389.981 586.749 390.551 586.607 391.215 586.607C392.044 586.607 392.722 586.866 393.249 587.385C393.776 587.9 394.04 588.703 394.04 589.794V596H392.615V589.794C392.615 589.11 392.428 588.621 392.054 588.327C391.679 588.033 391.239 587.886 390.732 587.886C390.08 587.886 389.575 588.084 389.216 588.478C388.858 588.868 388.679 589.363 388.679 589.963V596H387.23V589.649C387.23 589.122 387.059 588.697 386.717 588.375C386.375 588.049 385.934 587.886 385.395 587.886C385.025 587.886 384.679 587.985 384.357 588.182C384.039 588.379 383.781 588.653 383.584 589.003C383.391 589.349 383.294 589.75 383.294 590.205V596H381.869ZM399.373 596.217C398.786 596.217 398.253 596.107 397.774 595.885C397.295 595.66 396.914 595.336 396.633 594.913C396.351 594.487 396.21 593.972 396.21 593.368C396.21 592.837 396.315 592.406 396.524 592.076C396.733 591.742 397.013 591.48 397.363 591.291C397.713 591.102 398.1 590.961 398.522 590.869C398.949 590.772 399.378 590.696 399.808 590.639C400.372 590.567 400.828 590.512 401.179 590.476C401.533 590.436 401.79 590.37 401.951 590.277C402.116 590.184 402.199 590.023 402.199 589.794V589.746C402.199 589.15 402.036 588.687 401.71 588.357C401.388 588.027 400.899 587.862 400.243 587.862C399.563 587.862 399.029 588.011 398.643 588.309C398.257 588.607 397.985 588.925 397.828 589.263L396.476 588.78C396.717 588.216 397.039 587.778 397.442 587.464C397.848 587.146 398.291 586.924 398.77 586.8C399.253 586.671 399.728 586.607 400.195 586.607C400.492 586.607 400.834 586.643 401.221 586.715C401.611 586.784 401.987 586.926 402.35 587.144C402.716 587.361 403.02 587.689 403.261 588.128C403.503 588.567 403.623 589.154 403.623 589.891V596H402.199V594.744H402.126C402.03 594.946 401.869 595.161 401.643 595.39C401.418 595.62 401.118 595.815 400.744 595.976C400.37 596.137 399.913 596.217 399.373 596.217ZM399.591 594.938C400.154 594.938 400.629 594.827 401.016 594.605C401.406 594.384 401.7 594.098 401.897 593.748C402.098 593.398 402.199 593.03 402.199 592.643V591.339C402.138 591.412 402.006 591.478 401.8 591.539C401.599 591.595 401.366 591.645 401.1 591.69C400.838 591.73 400.583 591.766 400.333 591.798C400.088 591.826 399.889 591.851 399.736 591.871C399.365 591.919 399.019 591.998 398.697 592.106C398.379 592.211 398.122 592.37 397.925 592.583C397.731 592.792 397.635 593.078 397.635 593.44C397.635 593.935 397.818 594.31 398.184 594.563C398.554 594.813 399.023 594.938 399.591 594.938ZM407.552 592.619L407.528 590.857H407.818L411.874 586.727H413.637L409.315 591.098H409.194L407.552 592.619ZM406.224 596V583.636H407.649V596H406.224ZM412.116 596L408.494 591.412L409.508 590.422L413.927 596H412.116ZM418.977 596.193C418.083 596.193 417.313 595.996 416.665 595.602C416.021 595.203 415.524 594.648 415.174 593.935C414.828 593.219 414.654 592.386 414.654 591.436C414.654 590.486 414.828 589.649 415.174 588.925C415.524 588.196 416.011 587.629 416.635 587.222C417.262 586.812 417.995 586.607 418.832 586.607C419.315 586.607 419.792 586.687 420.263 586.848C420.734 587.009 421.162 587.271 421.549 587.633C421.935 587.991 422.243 588.466 422.472 589.058C422.702 589.649 422.816 590.378 422.816 591.243V591.847H415.669V590.615H421.368C421.368 590.092 421.263 589.625 421.054 589.214C420.848 588.804 420.555 588.48 420.172 588.243C419.794 588.005 419.347 587.886 418.832 587.886C418.265 587.886 417.774 588.027 417.359 588.309C416.949 588.587 416.633 588.949 416.411 589.396C416.19 589.842 416.079 590.321 416.079 590.832V591.653C416.079 592.354 416.2 592.947 416.441 593.434C416.687 593.917 417.027 594.286 417.462 594.539C417.896 594.789 418.401 594.913 418.977 594.913C419.351 594.913 419.689 594.861 419.991 594.756C420.297 594.648 420.561 594.487 420.782 594.273C421.003 594.056 421.174 593.786 421.295 593.464L422.672 593.851C422.527 594.318 422.283 594.728 421.941 595.082C421.599 595.433 421.176 595.706 420.673 595.903C420.17 596.097 419.605 596.193 418.977 596.193ZM431.19 590.422V596H429.765V583.636H431.19V588.176H431.31C431.528 587.697 431.854 587.317 432.288 587.035C432.727 586.749 433.311 586.607 434.039 586.607C434.671 586.607 435.224 586.733 435.699 586.987C436.174 587.236 436.542 587.621 436.804 588.14C437.07 588.655 437.202 589.311 437.202 590.108V596H435.778V590.205C435.778 589.468 435.587 588.899 435.204 588.496C434.826 588.09 434.301 587.886 433.629 587.886C433.162 587.886 432.743 587.985 432.373 588.182C432.007 588.379 431.717 588.667 431.504 589.045C431.294 589.424 431.19 589.883 431.19 590.422ZM439.809 596V586.727H441.234V596H439.809ZM440.533 585.182C440.256 585.182 440.016 585.087 439.815 584.898C439.618 584.709 439.519 584.482 439.519 584.216C439.519 583.95 439.618 583.723 439.815 583.534C440.016 583.345 440.256 583.25 440.533 583.25C440.811 583.25 441.048 583.345 441.246 583.534C441.447 583.723 441.547 583.95 441.547 584.216C441.547 584.482 441.447 584.709 441.246 584.898C441.048 585.087 440.811 585.182 440.533 585.182ZM450.411 588.804L449.131 589.166C449.051 588.953 448.932 588.746 448.775 588.544C448.622 588.339 448.413 588.17 448.147 588.037C447.882 587.904 447.542 587.838 447.127 587.838C446.56 587.838 446.087 587.969 445.708 588.23C445.334 588.488 445.147 588.816 445.147 589.214C445.147 589.569 445.276 589.848 445.533 590.054C445.791 590.259 446.193 590.43 446.741 590.567L448.117 590.905C448.946 591.106 449.564 591.414 449.971 591.828C450.377 592.239 450.58 592.768 450.58 593.416C450.58 593.947 450.427 594.422 450.121 594.841C449.82 595.259 449.397 595.589 448.854 595.831C448.31 596.072 447.679 596.193 446.958 596.193C446.012 596.193 445.23 595.988 444.61 595.577C443.99 595.167 443.598 594.567 443.433 593.778L444.785 593.44C444.914 593.939 445.157 594.314 445.515 594.563C445.877 594.813 446.35 594.938 446.934 594.938C447.598 594.938 448.125 594.797 448.516 594.515C448.91 594.229 449.107 593.887 449.107 593.489C449.107 593.167 448.995 592.897 448.769 592.68C448.544 592.458 448.198 592.293 447.731 592.185L446.185 591.822C445.336 591.621 444.712 591.309 444.314 590.887C443.92 590.46 443.722 589.927 443.722 589.287C443.722 588.764 443.869 588.301 444.163 587.898C444.461 587.496 444.865 587.18 445.376 586.951C445.892 586.721 446.475 586.607 447.127 586.607C448.045 586.607 448.765 586.808 449.288 587.21C449.816 587.613 450.19 588.144 450.411 588.804ZM456.758 586.727V587.935H451.952V586.727H456.758ZM453.353 584.506H454.777V593.344C454.777 593.746 454.836 594.048 454.953 594.249C455.073 594.446 455.226 594.579 455.411 594.648C455.6 594.712 455.8 594.744 456.009 594.744C456.166 594.744 456.295 594.736 456.395 594.72C456.496 594.7 456.576 594.684 456.637 594.672L456.927 595.952C456.83 595.988 456.695 596.024 456.522 596.06C456.349 596.101 456.13 596.121 455.864 596.121C455.462 596.121 455.067 596.034 454.681 595.861C454.299 595.688 453.981 595.424 453.727 595.07C453.477 594.716 453.353 594.269 453.353 593.73V584.506ZM462.568 596.193C461.731 596.193 460.996 595.994 460.365 595.596C459.737 595.197 459.246 594.64 458.892 593.923C458.541 593.207 458.366 592.37 458.366 591.412C458.366 590.446 458.541 589.603 458.892 588.882C459.246 588.162 459.737 587.603 460.365 587.204C460.996 586.806 461.731 586.607 462.568 586.607C463.405 586.607 464.138 586.806 464.766 587.204C465.397 587.603 465.888 588.162 466.239 588.882C466.593 589.603 466.77 590.446 466.77 591.412C466.77 592.37 466.593 593.207 466.239 593.923C465.888 594.64 465.397 595.197 464.766 595.596C464.138 595.994 463.405 596.193 462.568 596.193ZM462.568 594.913C463.204 594.913 463.727 594.75 464.138 594.424C464.548 594.098 464.852 593.67 465.049 593.138C465.246 592.607 465.345 592.032 465.345 591.412C465.345 590.792 465.246 590.215 465.049 589.679C464.852 589.144 464.548 588.711 464.138 588.381C463.727 588.051 463.204 587.886 462.568 587.886C461.932 587.886 461.409 588.051 460.998 588.381C460.588 588.711 460.284 589.144 460.087 589.679C459.89 590.215 459.791 590.792 459.791 591.412C459.791 592.032 459.89 592.607 460.087 593.138C460.284 593.67 460.588 594.098 460.998 594.424C461.409 594.75 461.932 594.913 462.568 594.913ZM468.945 596V586.727H470.321V588.128H470.418C470.587 587.669 470.893 587.297 471.335 587.011C471.778 586.725 472.277 586.582 472.832 586.582C472.937 586.582 473.068 586.584 473.225 586.588C473.382 586.592 473.5 586.598 473.581 586.607V588.055C473.533 588.043 473.422 588.025 473.249 588.001C473.08 587.973 472.901 587.959 472.712 587.959C472.261 587.959 471.858 588.053 471.504 588.243C471.154 588.428 470.876 588.685 470.671 589.015C470.47 589.341 470.369 589.714 470.369 590.132V596H468.945ZM476.47 599.477C476.228 599.477 476.013 599.457 475.824 599.417C475.635 599.381 475.504 599.344 475.431 599.308L475.794 598.053C476.14 598.141 476.445 598.173 476.711 598.149C476.977 598.125 477.212 598.006 477.417 597.793C477.627 597.584 477.818 597.244 477.991 596.773L478.257 596.048L474.828 586.727H476.373L478.933 594.116H479.029L481.589 586.727H483.134L479.198 597.352C479.021 597.831 478.802 598.228 478.54 598.542C478.279 598.859 477.975 599.095 477.629 599.248C477.287 599.401 476.9 599.477 476.47 599.477ZM484.792 596.097C484.494 596.097 484.238 595.99 484.025 595.777C483.812 595.563 483.705 595.308 483.705 595.01C483.705 594.712 483.812 594.457 484.025 594.243C484.238 594.03 484.494 593.923 484.792 593.923C485.089 593.923 485.345 594.03 485.558 594.243C485.772 594.457 485.878 594.712 485.878 595.01C485.878 595.207 485.828 595.388 485.727 595.553C485.631 595.718 485.5 595.851 485.335 595.952C485.174 596.048 484.993 596.097 484.792 596.097ZM489.428 596.097C489.13 596.097 488.875 595.99 488.661 595.777C488.448 595.563 488.341 595.308 488.341 595.01C488.341 594.712 488.448 594.457 488.661 594.243C488.875 594.03 489.13 593.923 489.428 593.923C489.726 593.923 489.981 594.03 490.195 594.243C490.408 594.457 490.515 594.712 490.515 595.01C490.515 595.207 490.464 595.388 490.364 595.553C490.267 595.718 490.136 595.851 489.971 595.952C489.81 596.048 489.629 596.097 489.428 596.097ZM494.064 596.097C493.766 596.097 493.511 595.99 493.298 595.777C493.084 595.563 492.978 595.308 492.978 595.01C492.978 594.712 493.084 594.457 493.298 594.243C493.511 594.03 493.766 593.923 494.064 593.923C494.362 593.923 494.618 594.03 494.831 594.243C495.044 594.457 495.151 594.712 495.151 595.01C495.151 595.207 495.101 595.388 495 595.553C494.903 595.718 494.773 595.851 494.608 595.952C494.447 596.048 494.266 596.097 494.064 596.097ZM501.482 596.193C500.645 596.193 499.911 595.994 499.279 595.596C498.651 595.197 498.16 594.64 497.806 593.923C497.456 593.207 497.28 592.37 497.28 591.412C497.28 590.446 497.456 589.603 497.806 588.882C498.16 588.162 498.651 587.603 499.279 587.204C499.911 586.806 500.645 586.607 501.482 586.607C502.319 586.607 503.052 586.806 503.68 587.204C504.311 587.603 504.802 588.162 505.153 588.882C505.507 589.603 505.684 590.446 505.684 591.412C505.684 592.37 505.507 593.207 505.153 593.923C504.802 594.64 504.311 595.197 503.68 595.596C503.052 595.994 502.319 596.193 501.482 596.193ZM501.482 594.913C502.118 594.913 502.641 594.75 503.052 594.424C503.462 594.098 503.766 593.67 503.963 593.138C504.161 592.607 504.259 592.032 504.259 591.412C504.259 590.792 504.161 590.215 503.963 589.679C503.766 589.144 503.462 588.711 503.052 588.381C502.641 588.051 502.118 587.886 501.482 587.886C500.846 587.886 500.323 588.051 499.913 588.381C499.502 588.711 499.198 589.144 499.001 589.679C498.804 590.215 498.705 590.792 498.705 591.412C498.705 592.032 498.804 592.607 499.001 593.138C499.198 593.67 499.502 594.098 499.913 594.424C500.323 594.75 500.846 594.913 501.482 594.913ZM507.859 596V586.727H509.235V588.128H509.332C509.501 587.669 509.807 587.297 510.249 587.011C510.692 586.725 511.191 586.582 511.746 586.582C511.851 586.582 511.982 586.584 512.139 586.588C512.296 586.592 512.415 586.598 512.495 586.607V588.055C512.447 588.043 512.336 588.025 512.163 588.001C511.994 587.973 511.815 587.959 511.626 587.959C511.175 587.959 510.772 588.053 510.418 588.243C510.068 588.428 509.79 588.685 509.585 589.015C509.384 589.341 509.283 589.714 509.283 590.132V596H507.859ZM523.094 586.727V587.935H518.096V586.727H523.094ZM519.593 596V585.447C519.593 584.916 519.718 584.473 519.967 584.119C520.217 583.765 520.541 583.5 520.939 583.322C521.338 583.145 521.758 583.057 522.201 583.057C522.551 583.057 522.837 583.085 523.058 583.141C523.28 583.198 523.445 583.25 523.553 583.298L523.143 584.53C523.07 584.506 522.97 584.475 522.841 584.439C522.716 584.403 522.551 584.385 522.346 584.385C521.875 584.385 521.535 584.504 521.326 584.741C521.12 584.979 521.018 585.327 521.018 585.786V596H519.593ZM527.554 596.217C526.967 596.217 526.433 596.107 525.954 595.885C525.475 595.66 525.095 595.336 524.813 594.913C524.532 594.487 524.391 593.972 524.391 593.368C524.391 592.837 524.495 592.406 524.705 592.076C524.914 591.742 525.194 591.48 525.544 591.291C525.894 591.102 526.28 590.961 526.703 590.869C527.13 590.772 527.558 590.696 527.989 590.639C528.552 590.567 529.009 590.512 529.359 590.476C529.713 590.436 529.971 590.37 530.132 590.277C530.297 590.184 530.379 590.023 530.379 589.794V589.746C530.379 589.15 530.216 588.687 529.89 588.357C529.568 588.027 529.079 587.862 528.423 587.862C527.743 587.862 527.21 588.011 526.824 588.309C526.437 588.607 526.166 588.925 526.009 589.263L524.656 588.78C524.898 588.216 525.22 587.778 525.622 587.464C526.029 587.146 526.472 586.924 526.95 586.8C527.433 586.671 527.908 586.607 528.375 586.607C528.673 586.607 529.015 586.643 529.401 586.715C529.792 586.784 530.168 586.926 530.53 587.144C530.897 587.361 531.2 587.689 531.442 588.128C531.683 588.567 531.804 589.154 531.804 589.891V596H530.379V594.744H530.307C530.21 594.946 530.049 595.161 529.824 595.39C529.599 595.62 529.299 595.815 528.925 595.976C528.55 596.137 528.093 596.217 527.554 596.217ZM527.771 594.938C528.335 594.938 528.81 594.827 529.196 594.605C529.587 594.384 529.88 594.098 530.078 593.748C530.279 593.398 530.379 593.03 530.379 592.643V591.339C530.319 591.412 530.186 591.478 529.981 591.539C529.78 591.595 529.546 591.645 529.281 591.69C529.019 591.73 528.764 591.766 528.514 591.798C528.269 591.826 528.069 591.851 527.916 591.871C527.546 591.919 527.2 591.998 526.878 592.106C526.56 592.211 526.302 592.37 526.105 592.583C525.912 592.792 525.816 593.078 525.816 593.44C525.816 593.935 525.999 594.31 526.365 594.563C526.735 594.813 527.204 594.938 527.771 594.938ZM535.733 592.619L535.709 590.857H535.998L540.055 586.727H541.818L537.495 591.098H537.375L535.733 592.619ZM534.405 596V583.636H535.829V596H534.405ZM540.297 596L536.674 591.412L537.689 590.422L542.108 596H540.297ZM547.158 596.193C546.264 596.193 545.493 595.996 544.845 595.602C544.201 595.203 543.704 594.648 543.354 593.935C543.008 593.219 542.835 592.386 542.835 591.436C542.835 590.486 543.008 589.649 543.354 588.925C543.704 588.196 544.191 587.629 544.815 587.222C545.443 586.812 546.176 586.607 547.013 586.607C547.496 586.607 547.973 586.687 548.443 586.848C548.914 587.009 549.343 587.271 549.729 587.633C550.116 587.991 550.424 588.466 550.653 589.058C550.882 589.649 550.997 590.378 550.997 591.243V591.847H543.849V590.615H549.548C549.548 590.092 549.444 589.625 549.234 589.214C549.029 588.804 548.735 588.48 548.353 588.243C547.975 588.005 547.528 587.886 547.013 587.886C546.445 587.886 545.954 588.027 545.54 588.309C545.129 588.587 544.813 588.949 544.592 589.396C544.371 589.842 544.26 590.321 544.26 590.832V591.653C544.26 592.354 544.381 592.947 544.622 593.434C544.868 593.917 545.208 594.286 545.642 594.539C546.077 594.789 546.582 594.913 547.158 594.913C547.532 594.913 547.87 594.861 548.172 594.756C548.478 594.648 548.741 594.487 548.963 594.273C549.184 594.056 549.355 593.786 549.476 593.464L550.852 593.851C550.707 594.318 550.464 594.728 550.122 595.082C549.78 595.433 549.357 595.706 548.854 595.903C548.351 596.097 547.785 596.193 547.158 596.193ZM557.946 596V586.727H559.37V596H557.946ZM558.67 585.182C558.392 585.182 558.153 585.087 557.952 584.898C557.754 584.709 557.656 584.482 557.656 584.216C557.656 583.95 557.754 583.723 557.952 583.534C558.153 583.345 558.392 583.25 558.67 583.25C558.948 583.25 559.185 583.345 559.382 583.534C559.584 583.723 559.684 583.95 559.684 584.216C559.684 584.482 559.584 584.709 559.382 584.898C559.185 585.087 558.948 585.182 558.67 585.182ZM566.012 586.727V587.935H561.207V586.727H566.012ZM562.608 584.506H564.032V593.344C564.032 593.746 564.091 594.048 564.207 594.249C564.328 594.446 564.481 594.579 564.666 594.648C564.855 594.712 565.055 594.744 565.264 594.744C565.421 594.744 565.55 594.736 565.65 594.72C565.751 594.7 565.831 594.684 565.892 594.672L566.181 595.952C566.085 595.988 565.95 596.024 565.777 596.06C565.604 596.101 565.385 596.121 565.119 596.121C564.717 596.121 564.322 596.034 563.936 595.861C563.553 595.688 563.235 595.424 562.982 595.07C562.732 594.716 562.608 594.269 562.608 593.73V584.506ZM570.015 592.523V592.45C570.023 591.682 570.103 591.07 570.256 590.615C570.409 590.16 570.627 589.792 570.908 589.51C571.19 589.229 571.528 588.969 571.923 588.732C572.16 588.587 572.373 588.416 572.562 588.218C572.752 588.017 572.901 587.786 573.009 587.524C573.122 587.263 573.178 586.973 573.178 586.655C573.178 586.26 573.086 585.918 572.901 585.629C572.715 585.339 572.468 585.115 572.158 584.958C571.848 584.801 571.504 584.723 571.126 584.723C570.796 584.723 570.478 584.791 570.172 584.928C569.866 585.065 569.61 585.28 569.405 585.574C569.2 585.868 569.081 586.252 569.049 586.727H567.528C567.56 586.043 567.737 585.458 568.059 584.971C568.385 584.484 568.814 584.111 569.345 583.854C569.88 583.596 570.474 583.467 571.126 583.467C571.834 583.467 572.45 583.608 572.973 583.89C573.5 584.172 573.907 584.558 574.192 585.049C574.482 585.54 574.627 586.099 574.627 586.727C574.627 587.17 574.559 587.57 574.422 587.929C574.289 588.287 574.096 588.607 573.842 588.888C573.593 589.17 573.291 589.42 572.937 589.637C572.583 589.858 572.299 590.092 572.086 590.337C571.872 590.579 571.717 590.867 571.621 591.201C571.524 591.535 571.472 591.951 571.464 592.45V592.523H570.015ZM570.788 596.097C570.49 596.097 570.234 595.99 570.021 595.777C569.808 595.563 569.701 595.308 569.701 595.01C569.701 594.712 569.808 594.457 570.021 594.243C570.234 594.03 570.49 593.923 570.788 593.923C571.085 593.923 571.341 594.03 571.554 594.243C571.768 594.457 571.874 594.712 571.874 595.01C571.874 595.207 571.824 595.388 571.723 595.553C571.627 595.718 571.496 595.851 571.331 595.952C571.17 596.048 570.989 596.097 570.788 596.097Z" fill="white"/>
</g>
<defs>
<filter id="filter0_d_1811_264" x="218.857" y="578.057" width="360.77" height="26.4205" filterUnits="userSpaceOnUse" color-interpolation-filters="sRGB">
<feFlood flood-opacity="0" result="BackgroundImageFix"/>
<feColorMatrix in="SourceAlpha" type="matrix" values="0 0 0 0 0 0 0 0 0 0 0 0 0 0 0 0 0 0 127 0" result="hardAlpha"/>
<feOffset/>
<feGaussianBlur stdDeviation="2.5"/>
<feComposite in2="hardAlpha" operator="out"/>
<feColorMatrix type="matrix" values="0 0 0 0 0 0 0 0 0 0 0 0 0 0 0 0 0 0 0.6 0"/>
<feBlend mode="normal" in2="BackgroundImageFix" result="effect1_dropShadow_1811_264"/>
<feBlend mode="normal" in="SourceGraphic" in2="effect1_dropShadow_1811_264" result="shape"/>
</filter>
<radialGradient id="paint0_radial_1811_264" cx="0" cy="0" r="1" gradientUnits="userSpaceOnUse" gradientTransform="translate(0 668) scale(1250 220.44)">
<stop stop-opacity="0.5"/>
<stop offset="1" stop-color="white" stop-opacity="0"/>
</radialGradient>
</defs>
</svg>
